<?xml version="1.0" encoding="UTF-8" standalone="no"?>
<svg
   xmlns:dc="http://purl.org/dc/elements/1.1/"
   xmlns:cc="http://creativecommons.org/ns#"
   xmlns:rdf="http://www.w3.org/1999/02/22-rdf-syntax-ns#"
   xmlns:svg="http://www.w3.org/2000/svg"
   xmlns="http://www.w3.org/2000/svg"
   xmlns:sodipodi="http://sodipodi.sourceforge.net/DTD/sodipodi-0.dtd"
   xmlns:inkscape="http://www.inkscape.org/namespaces/inkscape"
   inkscape:export-ydpi="576"
   inkscape:export-xdpi="576"
   inkscape:export-filename="D:\Project Real\DESEMBER\export extended line\png\14 - Globe.png"
   width="64pt"
   height="64pt"
   viewBox="0 0 22.577778 22.577778"
   version="1.1"
   id="svg831"
   inkscape:version="1.0 (4035a4fb49, 2020-05-01)"
   sodipodi:docname="16 - Shoes.svg">
  <defs
     id="defs825">
    <pattern
       id="EMFhbasepattern"
       patternUnits="userSpaceOnUse"
       width="6"
       height="6"
       x="0"
       y="0" />
    <pattern
       id="EMFhbasepattern-9"
       patternUnits="userSpaceOnUse"
       width="6"
       height="6"
       x="0"
       y="0" />
    <pattern
       id="EMFhbasepattern-0"
       patternUnits="userSpaceOnUse"
       width="6"
       height="6"
       x="0"
       y="0" />
    <pattern
       id="EMFhbasepattern-7"
       patternUnits="userSpaceOnUse"
       width="6"
       height="6"
       x="0"
       y="0" />
    <pattern
       id="EMFhbasepattern-2"
       patternUnits="userSpaceOnUse"
       width="6"
       height="6"
       x="0"
       y="0" />
    <pattern
       id="EMFhbasepattern-98"
       patternUnits="userSpaceOnUse"
       width="6"
       height="6"
       x="0"
       y="0" />
    <pattern
       id="EMFhbasepattern-6"
       patternUnits="userSpaceOnUse"
       width="6"
       height="6"
       x="0"
       y="0" />
    <pattern
       id="EMFhbasepattern-01"
       patternUnits="userSpaceOnUse"
       width="6"
       height="6"
       x="0"
       y="0" />
    <pattern
       id="EMFhbasepattern-07"
       patternUnits="userSpaceOnUse"
       width="6"
       height="6"
       x="0"
       y="0" />
    <pattern
       id="EMFhbasepattern-8"
       patternUnits="userSpaceOnUse"
       width="6"
       height="6"
       x="0"
       y="0" />
    <pattern
       id="EMFhbasepattern-4"
       patternUnits="userSpaceOnUse"
       width="6"
       height="6"
       x="0"
       y="0" />
    <pattern
       id="EMFhbasepattern-40"
       patternUnits="userSpaceOnUse"
       width="6"
       height="6"
       x="0"
       y="0" />
    <pattern
       id="EMFhbasepattern-08"
       patternUnits="userSpaceOnUse"
       width="6"
       height="6"
       x="0"
       y="0" />
    <pattern
       id="EMFhbasepattern-04"
       patternUnits="userSpaceOnUse"
       width="6"
       height="6"
       x="0"
       y="0" />
    <pattern
       id="EMFhbasepattern-014"
       patternUnits="userSpaceOnUse"
       width="6"
       height="6"
       x="0"
       y="0" />
    <pattern
       id="EMFhbasepattern-27"
       patternUnits="userSpaceOnUse"
       width="6"
       height="6"
       x="0"
       y="0" />
    <pattern
       id="EMFhbasepattern-09"
       patternUnits="userSpaceOnUse"
       width="6"
       height="6"
       x="0"
       y="0" />
    <pattern
       id="EMFhbasepattern-5"
       patternUnits="userSpaceOnUse"
       width="6"
       height="6"
       x="0"
       y="0" />
    <pattern
       id="EMFhbasepattern-018"
       patternUnits="userSpaceOnUse"
       width="6"
       height="6"
       x="0"
       y="0" />
  </defs>
  <sodipodi:namedview
     id="base"
     pagecolor="#ffffff"
     bordercolor="#666666"
     borderopacity="1.0"
     inkscape:pageopacity="0.0"
     inkscape:pageshadow="2"
     inkscape:zoom="6.2578125"
     inkscape:cx="42.666667"
     inkscape:cy="42.666667"
     inkscape:document-units="pt"
     inkscape:current-layer="layer1"
     showgrid="false"
     units="pt"
     inkscape:window-width="1366"
     inkscape:window-height="706"
     inkscape:window-x="-8"
     inkscape:window-y="-8"
     inkscape:window-maximized="1"
     inkscape:pagecheckerboard="true"
     inkscape:showpageshadow="false"
     inkscape:object-paths="true"
     inkscape:snap-intersection-paths="true"
     inkscape:snap-smooth-nodes="true"
     inkscape:snap-midpoints="true"
     showguides="true"
     inkscape:snap-bbox="true"
     inkscape:bbox-nodes="true"
     inkscape:snap-nodes="false"
     inkscape:snap-global="true"
     inkscape:document-rotation="0">
    <inkscape:grid
       type="xygrid"
       id="grid1378" />
    <sodipodi:guide
       position="0.97013831,21.607643"
       orientation="78.000048,0"
       id="guide1380"
       inkscape:locked="false" />
    <sodipodi:guide
       position="0.97013831,0.97013129"
       orientation="0,78.000005"
       id="guide1382"
       inkscape:locked="false" />
    <sodipodi:guide
       position="21.607639,0.97013129"
       orientation="-78.000048,0"
       id="guide1384"
       inkscape:locked="false" />
    <sodipodi:guide
       position="21.607639,21.607643"
       orientation="0,-78.000005"
       id="guide1386"
       inkscape:locked="false" />
  </sodipodi:namedview>
  <metadata
     id="metadata828">
    <rdf:RDF>
      <cc:Work
         rdf:about="">
        <dc:format>image/svg+xml</dc:format>
        <dc:type
           rdf:resource="http://purl.org/dc/dcmitype/StillImage" />
        <dc:title></dc:title>
      </cc:Work>
    </rdf:RDF>
  </metadata>
  <g
     inkscape:label="Icon"
     inkscape:groupmode="layer"
     id="layer1"
     transform="translate(0,-274.42223)">
    <path
       id="path3711"
       style="color:#000000;font-style:normal;font-variant:normal;font-weight:normal;font-stretch:normal;font-size:medium;line-height:normal;font-family:sans-serif;font-variant-ligatures:normal;font-variant-position:normal;font-variant-caps:normal;font-variant-numeric:normal;font-variant-alternates:normal;font-variant-east-asian:normal;font-feature-settings:normal;font-variation-settings:normal;text-indent:0;text-align:start;text-decoration:none;text-decoration-line:none;text-decoration-style:solid;text-decoration-color:#000000;letter-spacing:normal;word-spacing:normal;text-transform:none;writing-mode:lr-tb;direction:ltr;text-orientation:mixed;dominant-baseline:auto;baseline-shift:baseline;text-anchor:start;white-space:normal;shape-padding:0;shape-margin:0;inline-size:0;clip-rule:nonzero;display:inline;overflow:visible;visibility:visible;isolation:auto;mix-blend-mode:normal;color-interpolation:sRGB;color-interpolation-filters:linearRGB;solid-color:#000000;solid-opacity:1;vector-effect:none;fill:#000000;fill-opacity:1;fill-rule:nonzero;stroke:none;stroke-width:0.529166;stroke-linecap:round;stroke-linejoin:round;stroke-miterlimit:1.5;stroke-dasharray:none;stroke-dashoffset:0;stroke-opacity:1;color-rendering:auto;image-rendering:auto;shape-rendering:auto;text-rendering:auto;enable-background:accumulate;stop-color:#000000"
       d="m 13.174873,283.89742 c -0.01351,-0.008 -0.02738,-0.014 -0.0418,-0.0196 -0.747167,-0.30469 -1.589934,-0.24052 -2.284714,0.16002 -0.438622,-0.39586 -0.753931,-0.68763 -1.0162985,-0.92291 -0.5325575,-0.47756 -0.8837693,-0.75188 -1.6387497,-1.21943 -0.4457491,-0.27601 -0.9570708,-0.17392 -1.3082566,-0.10326 -0.1999239,0.0402 -0.4540018,0.0555 -0.686459,0.049 -0.6311498,-0.0297 -0.8569936,-0.29348 -1.041772,-0.78704 -0.048838,-0.13085 -0.1738448,-0.21757 -0.3135113,-0.2175 l -1.1933022,-9.7e-4 c -0.1631062,0.005 -0.2930133,0.0624 -0.3814387,0.12965 -0.117901,0.0896 -0.205348,0.19427 -0.3017547,0.31808 -0.258424,0.33187 -0.5307114,0.84058 -0.6786213,1.21943 l -0.9147344,2.34284 -0.39352198,1.64398 c -0.0374183,0.15603 0.0412455,0.31665 0.18745368,0.38274 l 2.8118043,1.26124 v 2.11359 c 6.687e-4,0.18475 0.1509716,0.33381 0.3357182,0.33311 5.0651865,5.3e-4 10.1296052,-6.7e-4 15.1794982,-0.001 0.753394,0.0685 1.479712,-0.36219 1.794525,-1.06496 v 0 c 0.164464,-0.27062 0.272212,-0.56742 0.30894,-0.87653 0.06197,-0.5216 -0.181138,-1.04475 -0.447407,-1.39969 -0.228436,-0.30452 -0.560522,-0.51185 -0.856278,-0.66883 -0.147877,-0.0785 -0.287426,-0.14119 -0.402339,-0.18811 -0.114916,-0.0469 -0.186277,-0.0738 -0.276282,-0.0934 -0.62552,-0.13609 -1.320146,-0.28681 -1.742926,-0.35663 -1.632817,-0.19525 -3.044385,-1.08107 -4.697771,-2.03324 z m -9.5118019,-2.39184 c 0.00501,1.2e-4 0.01001,1.2e-4 0.015023,0 h 1.0045425 c 0.2762611,0.52915 0.7363435,0.96739 1.4839534,1.00259 0.00154,2e-5 0.00305,2e-5 0.00458,0 0.2753415,0.008 0.5711463,-0.006 0.8445207,-0.062 0.2993317,-0.0603 0.6952317,-0.0603 0.8242736,0.0196 0.088574,0.0548 0.1537348,0.0979 0.2305613,0.14695 l -1.5290203,1.29715 c -0.1404301,0.11995 -0.156556,0.33116 -0.036577,0.47158 0.1199713,0.14044 0.3304954,0.15721 0.4709204,0.0372 l 1.6694473,-1.41798 c 0.2463289,0.18089 0.4607613,0.36048 0.7341392,0.60547 l -1.581272,1.34092 c -0.1404297,0.11994 -0.1572089,0.33114 -0.03723,0.47157 0.1192697,0.14116 0.33051,0.15858 0.471573,0.0392 l 1.6465873,-1.39839 c 0.2136965,0.19501 0.4169855,0.37924 0.7282595,0.65837 l -1.5773524,1.34027 c -0.1411947,0.11931 -0.1585758,0.3305 -0.039189,0.47158 0.1199713,0.14043 0.3304954,0.15655 0.47092,0.0365 l 1.6511594,-1.39773 c 0.312252,0.27578 0.665601,0.58457 1.085533,0.94576 -0.553492,0.21058 -1.086891,0.60014 -1.452603,1.30107 -0.08562,0.16425 -0.02156,0.36703 0.143041,0.45198 0.164249,0.0856 0.367032,0.0216 0.451979,-0.14304 0.517845,-0.99251 1.344556,-1.16925 2.084849,-1.15738 0.02064,0.006 0.04215,0.0101 0.0627,0.0169 0.410888,0.13696 0.765053,0.37491 1.041772,0.68122 0.122941,0.13609 0.266289,0.42147 0.340291,0.71325 0.05436,0.21436 0.0695,0.43343 0.05355,0.59501 h -4.437491 l -8.3609541,-3.81765 0.7850845,-2.01039 c 0.1153617,-0.29548 0.3982491,-0.81294 0.5845679,-1.05222 0.079631,-0.10225 0.139367,-0.16393 0.1678593,-0.18746 z m 8.5340379,2.8497 c 0.230714,0.006 0.461263,0.053 0.681233,0.14238 0.231383,0.13346 0.456218,0.26287 0.683194,0.39451 l -0.502925,0.84974 c 0.159609,0.1197 -0.364759,-0.11413 -0.436956,-0.14304 -0.498114,-0.42869 -0.888674,-0.77278 -1.238369,-1.08358 0.258375,-0.11148 0.53545,-0.1671 0.813823,-0.16001 z m 1.945729,0.87064 c 0.213007,0.11982 0.426023,0.23495 0.639433,0.34617 l -0.442182,0.68189 c -0.19618,-0.12071 -0.405406,-0.22396 -0.629635,-0.29979 z m -12.2158358,0.17309 8.3472368,3.81373 c 0.04345,0.0196 0.0908,0.0296 0.138468,0.0294 h 4.186682 c -0.166311,0.21932 -0.372751,0.4364 -0.602857,0.66881 H 9.5779839 l -7.8848088,-3.53483 z m 13.4607368,0.47091 c 0.21373,0.0988 0.430186,0.18939 0.648578,0.27302 l -0.301102,0.48334 c -0.09818,0.15663 -0.05085,0.36306 0.105815,0.46111 0.15703,0.0972 0.363232,0.0492 0.46047,-0.10781 l 0.38601,-0.61854 c 0.355644,0.10327 0.718939,0.18721 1.098596,0.23253 0.09128,0.0152 0.241194,0.0463 0.363151,0.0699 -0.254042,0.15869 -0.46241,0.34855 -0.62245,0.56693 -0.2917,0.39804 -0.422551,0.86306 -0.476799,1.34288 h -1.454562 c 0.01924,-0.25023 -0.01188,-0.50841 -0.07576,-0.76026 -0.09559,-0.37692 -0.256558,-0.73218 -0.49378,-0.99476 -0.0488,-0.054 -0.104135,-0.10212 -0.156755,-0.15283 z m 4.251997,1.1306 c 0.09507,0.0388 0.21573,0.0943 0.340944,0.16069 0.250427,0.13291 0.516724,0.32214 0.634207,0.47876 0.153401,0.20448 0.339084,0.74706 0.317431,0.92583 l -3.210225,0.008 c 0.04994,-0.3693 0.154376,-0.69046 0.342902,-0.94771 0.237464,-0.32403 0.616248,-0.57705 1.348099,-0.69953 0.04285,0.009 0.13157,0.0356 0.226642,0.0745 z m -18.3364906,0.57085 c -0.1836718,7.1e-4 -0.33238959,0.14944 -0.33310572,0.33311 v 2.34285 c 7.1563e-4,0.18367 0.14943392,0.33239 0.33310572,0.33311 0.1846912,7.3e-4 0.3349982,-0.14843 0.3357184,-0.33311 v -2.34285 c -7.202e-4,-0.18469 -0.1510272,-0.33383 -0.3357184,-0.33311 z m 1.3383013,0.66883 c -0.1839268,3.7e-4 -0.3330408,0.14918 -0.3337589,0.33311 v 1.67402 c 7.19e-4,0.18393 0.1498321,0.33274 0.3337589,0.33311 0.1846912,7.3e-4 0.3349982,-0.14843 0.3357184,-0.33311 v -1.67402 c -7.202e-4,-0.18469 -0.1510272,-0.33383 -0.3357184,-0.33311 z m 2.0064723,0.19333 3.2944811,1.47808 H 4.648019 Z m 10.273373,1.47742 c 0.181545,-0.20534 0.347957,-0.42192 0.474186,-0.66882 h 5.287237 c -0.198658,0.44578 -0.657636,0.71548 -1.159013,0.67013 z"
       sodipodi:nodetypes="cccsccccccscccccccccccsssccccsccccccccccccccccccccccccccssccccccscccccscccccccccccccccccccccscccsccccsccccccccscccccccccccccccccccc" />
  </g>
</svg>
